<?xml version="1.0" encoding="utf-8"?>
<!-- Generator: Adobe Illustrator 23.0.6, SVG Export Plug-In . SVG Version: 6.00 Build 0)  -->
<svg version="1.1" id="Layer_1" xmlns="http://www.w3.org/2000/svg" xmlns:xlink="http://www.w3.org/1999/xlink" x="0px" y="0px"
	 viewBox="0 0 288.6 62.8" style="enable-background:new 0 0 288.6 62.8;" xml:space="preserve">
<style type="text/css">
	.st0{fill:#FFFFFF;}
	.st1{clip-path:url(#SVGID_2_);fill:#FFFFFF;}
</style>
<g>
	<g>
		<path class="st0" d="M0,0h5.3v15.9c2.3-1.7,4.8-2.5,7.4-2.5c3.4,0,6.2,1.3,8.4,3.9s3.3,5.9,3.3,9.9c0,4.3-1.3,7.8-3.9,10.4
			c-2.6,2.6-6,3.9-10.4,3.9c-1.7,0-3.6-0.2-5.5-0.6C2.7,40.5,1.1,40,0,39.4V0z M5.3,21v14.6c1.8,0.5,3.7,0.8,5.6,0.8
			c2.4,0,4.3-0.8,5.8-2.5s2.2-3.8,2.2-6.5c0-2.7-0.7-4.9-2.1-6.5c-1.4-1.7-3.2-2.5-5.5-2.5C9.4,18.4,7.4,19.2,5.3,21z"/>
		<path class="st0" d="M43.1,13.9c4.1,0,7.5,1.3,10.2,4c2.7,2.6,4.1,6,4.1,10c0,3.9-1.4,7.1-4.1,9.7s-6.2,3.9-10.4,3.9
			c-4,0-7.4-1.3-10.1-3.9c-2.7-2.6-4.1-5.9-4.1-9.8c0-3.9,1.4-7.2,4.1-9.9C35.5,15.2,39,13.9,43.1,13.9z M42.8,18.7
			c-2.6,0-4.7,0.8-6.3,2.5s-2.5,3.8-2.5,6.4c0,2.6,0.8,4.7,2.5,6.3c1.7,1.6,3.8,2.4,6.5,2.4c2.6,0,4.8-0.8,6.4-2.5s2.5-3.8,2.5-6.3
			c0-2.6-0.9-4.7-2.6-6.4C47.7,19.6,45.5,18.7,42.8,18.7z"/>
		<path class="st0" d="M76.2,13.9c4.1,0,7.5,1.3,10.2,4c2.7,2.6,4.1,6,4.1,10c0,3.9-1.4,7.1-4.1,9.7s-6.2,3.9-10.4,3.9
			c-4,0-7.4-1.3-10.1-3.9c-2.7-2.6-4.1-5.9-4.1-9.8c0-3.9,1.4-7.2,4.1-9.9C68.6,15.2,72.1,13.9,76.2,13.9z M75.9,18.7
			c-2.6,0-4.7,0.8-6.3,2.5s-2.5,3.8-2.5,6.4c0,2.6,0.8,4.7,2.5,6.3c1.7,1.6,3.8,2.4,6.5,2.4c2.6,0,4.8-0.8,6.4-2.5s2.5-3.8,2.5-6.3
			c0-2.6-0.9-4.7-2.6-6.4C80.8,19.6,78.6,18.7,75.9,18.7z"/>
		<path class="st0" d="M96.4,0h5.3v40.9h-5.3V0z M114,14h6.3l-11.5,13.2l13.8,13.8h-7.2L102,27.2L114,14z"/>
		<path class="st0" d="M147.3,21.4v19.6h-5.4v-15c0-3-0.4-5.1-1.2-6.3c-0.8-1.2-2.2-1.8-4.2-1.8c-1.1,0-2.1,0.3-3.1,0.8
			c-0.9,0.5-2,1.4-3.2,2.7v19.6H125V14h5.3v3.5c2.7-2.7,5.4-4.1,8-4.1c3.4,0,6.1,1.6,7.9,4.9c2.9-3.3,5.8-4.9,8.9-4.9
			c2.6,0,4.8,1,6.5,2.9c1.7,1.9,2.5,4.8,2.5,8.8v15.9h-5.3V25c0-2.2-0.5-4-1.4-5.2c-0.9-1.2-2.2-1.8-4-1.8
			C151.2,18,149.2,19.1,147.3,21.4z"/>
		<path class="st0" d="M188,40.9v-3.5c-1.1,1.2-2.4,2.2-3.9,2.9c-1.5,0.7-2.9,1-4.4,1c-1.7,0-3.3-0.4-4.7-1.3s-2.5-2-3.3-3.5
			s-1.1-3.9-1.1-7.3V14h5.3v15.4c0,2.8,0.4,4.8,1.2,5.9c0.8,1.1,2.2,1.7,4.3,1.7c2.5,0,4.7-1.2,6.5-3.7V14h5.3v27H188z"/>
		<path class="st0" d="M206.2,14v3.4c2.4-2.6,5.1-4,8.1-4c1.7,0,3.2,0.4,4.7,1.3c1.4,0.9,2.5,2.1,3.3,3.6c0.8,1.5,1.1,3.9,1.1,7.2
			v15.4h-5.3V25.6c0-2.8-0.4-4.7-1.3-5.9c-0.8-1.2-2.2-1.8-4.2-1.8c-2.5,0-4.7,1.3-6.4,3.8v19.2h-5.4V14H206.2z"/>
		<path class="st0" d="M248.8,0h5.4v40.9h-11.4c-4,0-7.2-1.3-9.5-3.8s-3.6-5.9-3.6-10.1c0-4,1.2-7.2,3.7-9.8s5.7-3.8,9.5-3.8
			c1.8,0,3.8,0.4,5.9,1.1V0z M248.8,36.4V19.3c-1.7-0.8-3.3-1.3-5-1.3c-2.7,0-4.8,0.9-6.3,2.6s-2.4,4.1-2.4,7c0,2.8,0.7,4.9,2.1,6.4
			c0.8,0.9,1.7,1.5,2.6,1.8s2.6,0.5,5,0.5H248.8z"/>
		<path class="st0" d="M274.3,13.9c4.1,0,7.5,1.3,10.2,4s4.1,6,4.1,10c0,3.9-1.4,7.1-4.1,9.7s-6.2,3.9-10.4,3.9
			c-4,0-7.4-1.3-10.1-3.9s-4.1-5.9-4.1-9.8c0-3.9,1.4-7.2,4.1-9.9S270.2,13.9,274.3,13.9z M274,18.7c-2.6,0-4.7,0.8-6.3,2.5
			s-2.5,3.8-2.5,6.4c0,2.6,0.8,4.7,2.5,6.3s3.8,2.4,6.5,2.4c2.6,0,4.8-0.8,6.4-2.5s2.5-3.8,2.5-6.3c0-2.6-0.9-4.7-2.6-6.4
			S276.7,18.7,274,18.7z"/>
	</g>
	<g>
		<defs>
			<rect id="SVGID_1_" x="34.2" y="44.9" width="50.9" height="17.9"/>
		</defs>
		<clipPath id="SVGID_2_">
			<use xlink:href="#SVGID_1_"  style="overflow:visible;"/>
		</clipPath>
		<path class="st1" d="M59.7,10.6c7.6,0,14,2.4,19,7.1c5,4.7,7.6,10.6,7.6,17.7c0,6.9-2.6,12.6-7.7,17.2c-5.1,4.6-11.6,6.8-19.3,6.8
			c-7.5,0-13.8-2.3-18.9-7c-5-4.6-7.6-10.4-7.6-17.4c0-7,2.6-12.9,7.7-17.5C45.6,12.9,52,10.6,59.7,10.6z M59.1,16.7
			c-5.5,0-10,1.7-13.5,5.2c-3.5,3.4-5.3,7.8-5.3,13.1c0,5.3,1.8,9.6,5.4,12.9c3.6,3.3,8.2,5,13.9,5c5.6,0,10.2-1.7,13.8-5.1
			c3.6-3.4,5.4-7.7,5.4-13c0-5.2-1.9-9.6-5.6-13C69.5,18.4,64.8,16.7,59.1,16.7z"/>
	</g>
</g>
</svg>
