 <svg version="1.0" xmlns="http://www.w3.org/2000/svg" width="700.000000pt" height="653.000000pt" viewBox="0 0 700.000000 653.000000" preserveAspectRatio="xMidYMid meet">
<metadata>
Created by potrace 1.12, written by Peter Selinger 2001-2015
</metadata>
<g transform="translate(0.000000,653.000000) scale(0.100000,-0.100000)" fill="#000000" stroke="none">
<path d="M5475 5092 c-82 -43 -319 -165 -525 -271 -206 -106 -414 -214 -462
-239 -48 -26 -89 -44 -92 -42 -2 3 2 30 10 60 15 57 17 157 5 200 -7 24 -9 22
-29 -23 -23 -51 -103 -142 -149 -169 l-28 -16 0 111 c-1 93 -5 122 -25 172
l-23 60 -12 -55 c-23 -113 -110 -231 -215 -293 l-46 -26 -63 25 c-256 104
-592 111 -867 19 -235 -78 -366 -166 -636 -426 -284 -273 -372 -352 -425 -381
-61 -34 -192 -60 -304 -62 -48 0 -85 -4 -81 -8 4 -3 39 -16 77 -28 83 -26 218
-36 295 -22 l55 10 -34 -28 c-46 -39 -162 -95 -241 -115 -36 -10 -114 -21
-175 -24 l-110 -7 85 -28 c112 -37 219 -44 329 -22 46 9 86 15 88 12 3 -3 -48
-58 -113 -124 -114 -114 -256 -221 -357 -268 -46 -22 -47 -20 30 -199 360
-847 1184 -1423 2090 -1462 l142 -6 -29 109 c-39 147 -91 295 -151 430 l-50
111 39 79 c168 339 170 828 4 1166 -47 98 -51 116 -17 78 27 -30 122 -85 183
-106 44 -16 59 -27 83 -66 36 -56 139 -153 185 -176 28 -13 35 -23 44 -67 14
-69 58 -159 109 -222 63 -80 76 -86 189 -84 238 3 326 70 353 267 10 80 10 86
-30 240 -22 88 -62 240 -89 338 l-49 180 28 60 c16 34 29 69 29 79 0 27 -43
105 -94 170 -41 53 -63 94 -54 101 54 44 1258 1043 1268 1052 8 8 12 14 10 14
-3 0 -72 -35 -155 -78z"></path>
</g>
</svg>